# xmcd CD database file
#
# Track frame offsets:
#	150
#	17884
#	38884
#	53849
#	68113
#	87108
#	102766
#	120468
#	135760
#	158463
#	173934
#	190968
#
# Disc length: 2779 seconds
#
# Revision: 7
# Processed by: cddbd v1.5.2PL0 Copyright (c) Steve Scherf et al.
# Submitted via: CDex 2.12
#
DISCID=8e0ad90c
DTITLE=Vince Gill - Down To My Last Bad Habit
DYEAR=2016
DGENRE=Country
TTITLE0=Reasons For The Tears I Cry
TTITLE1=Down to My Last Bad Habit
TTITLE2=Me And My Girl
TTITLE3=Like My Daddy Did
TTITLE4=Make You Feel Real Good
TTITLE5=I Can't Do This
TTITLE6=My Favorite Movie
TTITLE7=One More Mistake I Made (feat. Chris Botti)
TTITLE8=Take Me Down (feat. Little Big Town)
TTITLE9=I'll Be Waiting for You (feat. Cam)
TTITLE10=When It's Love
TTITLE11=Sad One Comin' On (A Song For George Jones)
EXTD=YEAR: 2016
EXTT0=
EXTT1=
EXTT2=
EXTT3=
EXTT4=
EXTT5=
EXTT6=
EXTT7=
EXTT8=
EXTT9=
EXTT10=
EXTT11=
PLAYORDER=
